<svg xmlns="http://www.w3.org/2000/svg" viewBox="0 0 800 350" width="800" height="350">
  <defs>
    <linearGradient id="bg" x1="0" y1="0" x2="1" y2="1">
      <stop offset="0%" stop-color="#0F172A"/>
      <stop offset="100%" stop-color="#1E293B"/>
    </linearGradient>
    <linearGradient id="accent" x1="0" y1="0" x2="1" y2="0">
      <stop offset="0%" stop-color="#22D3EE"/>
      <stop offset="100%" stop-color="#818CF8"/>
    </linearGradient>
  </defs>
  <rect width="800" height="350" fill="url(#bg)" rx="16"/>
  <text x="400" y="35" text-anchor="middle" font-family="Arial,Helvetica,sans-serif" font-size="20" font-weight="bold" fill="url(#accent)">AI FEATURE 22: SENSOR RELIABILITY</text>
<rect x="40" y="60" width="100" height="60" rx="10" fill="#1E293B" stroke="#A78BFA" stroke-width="1.5"/>
<text x="90" y="85" text-anchor="middle" font-size="20">🧭</text>
<text x="90" y="105" text-anchor="middle" font-family="Arial,sans-serif" font-size="10" fill="#A78BFA">BNO055</text>
<text x="142" y="95" font-size="14" fill="#475569">→</text>
<rect x="150" y="60" width="100" height="60" rx="10" fill="#1E293B" stroke="#A78BFA" stroke-width="1.5"/>
<text x="200" y="85" text-anchor="middle" font-size="20">📡</text>
<text x="200" y="105" text-anchor="middle" font-family="Arial,sans-serif" font-size="10" fill="#A78BFA">I2C</text>
<text x="252" y="95" font-size="14" fill="#475569">→</text>
<rect x="260" y="60" width="100" height="60" rx="10" fill="#1E293B" stroke="#A78BFA" stroke-width="1.5"/>
<text x="310" y="85" text-anchor="middle" font-size="20">🔄</text>
<text x="310" y="105" text-anchor="middle" font-family="Arial,sans-serif" font-size="10" fill="#A78BFA">Recover</text>
<text x="362" y="95" font-size="14" fill="#475569">→</text>
<rect x="370" y="60" width="100" height="60" rx="10" fill="#1E293B" stroke="#A78BFA" stroke-width="1.5"/>
<text x="420" y="85" text-anchor="middle" font-size="20">📊</text>
<text x="420" y="105" text-anchor="middle" font-family="Arial,sans-serif" font-size="10" fill="#A78BFA">Quality</text>
<text x="472" y="95" font-size="14" fill="#475569">→</text>
<rect x="480" y="60" width="100" height="60" rx="10" fill="#1E293B" stroke="#A78BFA" stroke-width="1.5"/>
<text x="530" y="85" text-anchor="middle" font-size="20">🛡️</text>
<text x="530" y="105" text-anchor="middle" font-family="Arial,sans-serif" font-size="10" fill="#A78BFA">Guard</text>
<text x="400" y="390" text-anchor="middle" font-family="Arial,sans-serif" font-size="10" fill="#64748B">The Tank — Autonomous AI Robotic Platform — APC-2026-RJ-75818</text>
</svg>